<svg width="226" height="226" viewBox="0 0 226 226" fill="none" xmlns="http://www.w3.org/2000/svg">
<circle cx="113" cy="113" r="113" fill="white"/>
<path d="M76.04 113.96C79.9333 114.44 82.8133 115.693 84.68 117.72C86.6 119.693 87.56 122.147 87.56 125.08C87.56 128.013 86.4667 130.787 84.28 133.4C82.1467 136.013 79.4 138.04 76.04 139.48C74.5467 140.067 72.5733 140.493 70.12 140.76C67.72 141.027 65.24 141.16 62.68 141.16C58.4133 141.16 54.04 140.76 49.56 139.96C48.76 139.8 47.9067 139.4 47 138.76C46.1467 138.12 45.72 137.187 45.72 135.96C45.6667 131.053 45.48 124.227 45.16 115.48L45.08 111.08C44.8667 104.253 44.76 98.8933 44.76 95C44.76 94.3067 45.16 93.5067 45.96 92.6C46.8133 91.64 47.8267 91.1067 49 91C49.6933 91 50.36 90.9733 51 90.92C57.0267 90.3333 61.0533 90.04 63.08 90.04C67.08 90.04 70.6 90.44 73.64 91.24C76.7333 91.9867 79.2933 93.3733 81.32 95.4C82.0667 96.2533 82.68 97.3467 83.16 98.68C83.64 99.96 83.88 101.213 83.88 102.44C83.9333 105.053 83.24 107.453 81.8 109.64C80.4133 111.827 78.4933 113.267 76.04 113.96ZM63.56 96.84C61.7467 96.84 59.8533 96.9467 57.88 97.16C55.96 97.3733 54.3333 97.64 53 97.96L53.48 113.08L56.36 113C61 112.52 64.4133 112.12 66.6 111.8C67.9867 111.48 69.3467 110.867 70.68 109.96C72.0133 109 73.1067 108.013 73.96 107C74.8667 105.933 75.32 105.133 75.32 104.6C75.32 103.8 75.16 103 74.84 102.2C74.52 101.347 74.1733 100.733 73.8 100.36C72.36 98.9733 70.8933 98.04 69.4 97.56C67.9067 97.08 65.96 96.84 63.56 96.84ZM53.72 134.12C56.44 134.493 59.0267 134.68 61.48 134.68C66.8667 134.68 71.1067 133.987 74.2 132.6C77.3467 131.16 78.92 128.44 78.92 124.44C78.92 122.84 77.72 121.507 75.32 120.44C72.92 119.373 70.3333 118.84 67.56 118.84C65.6933 118.84 63.32 119.053 60.44 119.48C58.1467 119.8 55.9067 120.013 53.72 120.12C53.8267 123.32 53.88 125.347 53.88 126.2C53.88 127.853 53.8533 129.107 53.8 129.96L53.72 134.12ZM148.719 94.44C148.719 97.64 148.612 102.12 148.399 107.88C148.345 109.267 148.292 110.947 148.239 112.92C148.185 114.84 148.159 117.08 148.159 119.64C148.159 128.013 148.612 134.013 149.519 137.64C149.465 138.973 148.959 139.933 147.999 140.52C147.039 141.053 146.052 141.32 145.039 141.32C142.959 141.32 141.572 140.573 140.879 139.08C140.239 137.533 139.919 135.373 139.919 132.6C139.919 122.307 140.079 112.787 140.399 104.04C139.385 106.067 138.425 108.307 137.519 110.76C136.665 113.16 135.519 116.52 134.079 120.84C132.585 125.533 131.305 129.24 130.239 131.96C129.225 134.68 128.159 136.787 127.039 138.28C126.719 138.44 126.079 138.76 125.119 139.24C124.212 139.667 123.412 139.88 122.719 139.88C121.599 139.88 120.799 139.693 120.319 139.32C119.839 138.947 119.412 138.413 119.039 137.72C118.665 137.027 118.345 136.467 118.079 136.04C117.225 134.76 116.132 132.653 114.799 129.72C113.465 126.787 112.239 123.72 111.119 120.52C110.692 119.4 110.292 118.333 109.919 117.32C109.599 116.253 109.279 115.267 108.959 114.36C108.319 112.44 107.679 110.653 107.039 109C106.452 107.293 105.945 106.093 105.519 105.4C105.519 108.227 105.439 111.053 105.279 113.88C105.172 117.293 105.119 119.747 105.119 121.24C105.119 122.307 105.172 123.747 105.279 125.56C105.599 131.107 105.759 134.76 105.759 136.52C105.759 137.8 105.439 138.893 104.799 139.8C104.159 140.707 103.172 141.16 101.839 141.16C100.399 141.16 99.2254 140.893 98.3188 140.36C97.4654 139.773 97.0121 138.92 96.9588 137.8C97.0121 136.893 97.0388 135.427 97.0388 133.4C97.0388 129.293 96.8788 122.76 96.5588 113.8L96.4788 110.92C96.4788 108.893 96.5854 106.013 96.7988 102.28C96.8521 101.373 96.9054 100.307 96.9588 99.08C97.0121 97.8533 97.0388 96.52 97.0388 95.08C97.0388 93.4267 97.5988 92.2267 98.7188 91.48C99.8388 90.68 101.279 90.28 103.039 90.28C104.105 90.28 105.172 90.5467 106.239 91.08C107.359 91.6133 108.185 92.3867 108.719 93.4C109.785 95.5867 110.852 98.1733 111.919 101.16C112.985 104.093 114.425 108.28 116.239 113.72C117.945 118.893 119.305 122.84 120.319 125.56C121.332 128.227 122.185 130.04 122.879 131L124.719 125.56C130.745 107.16 134.799 96.28 136.879 92.92C137.359 92.28 138.185 91.72 139.359 91.24C140.585 90.7067 141.732 90.44 142.799 90.44C143.599 90.44 144.772 90.9467 146.319 91.96C147.919 92.92 148.719 93.7467 148.719 94.44ZM173.89 96.84C173.73 100.253 173.65 103.533 173.65 106.68C173.65 109.933 173.863 114.707 174.29 121C174.343 121.96 174.45 123.907 174.61 126.84C174.77 129.72 174.85 132.36 174.85 134.76C175.383 134.707 175.943 134.627 176.53 134.52C177.17 134.413 177.65 134.36 177.97 134.36C179.143 134.36 180.077 134.653 180.77 135.24C181.463 135.827 181.81 136.733 181.81 137.96C181.81 138.76 181.49 139.373 180.85 139.8C180.21 140.227 179.09 140.547 177.49 140.76C175.943 140.92 173.677 141 170.69 141C167.383 141 164.903 140.893 163.25 140.68C161.597 140.467 160.45 140.067 159.81 139.48C159.17 138.84 158.85 137.907 158.85 136.68C158.85 135.773 159.143 135.16 159.73 134.84C160.317 134.52 161.143 134.36 162.21 134.36L163.89 134.44L166.53 134.6L166.13 125.16C165.81 120.04 165.65 115.347 165.65 111.08C165.65 108.787 165.73 105.64 165.89 101.64L166.05 97.24C164.237 97.3467 162.823 97.4 161.81 97.4C160.637 97.4 159.837 97.1867 159.41 96.76C159.037 96.3333 158.85 95.4533 158.85 94.12C158.85 92.6267 159.863 91.6667 161.89 91.24C163.97 90.8133 167.117 90.6 171.33 90.6C174.583 90.6 177.01 90.7067 178.61 90.92C180.263 91.1333 181.09 91.6133 181.09 92.36C181.09 94.1733 180.69 95.3733 179.89 95.96C179.143 96.4933 177.677 96.76 175.49 96.76L173.89 96.84Z" fill="#D988B9"/>
</svg>
